<mxfile host="65bd71144e">
    <diagram id="utv0gLQX-evK5gTvCZsT" name="PÃ¡gina-1">
        <mxGraphModel dx="576" dy="432" grid="1" gridSize="13" guides="1" tooltips="1" connect="1" arrows="1" fold="1" page="1" pageScale="1" pageWidth="827" pageHeight="1169" math="0" shadow="0">
            <root>
                <mxCell id="0"/>
                <mxCell id="1" parent="0"/>
                <mxCell id="101" value="" style="group" vertex="1" connectable="0" parent="1">
                    <mxGeometry x="117" y="104" width="221" height="320" as="geometry"/>
                </mxCell>
                <mxCell id="95" value="" style="group" vertex="1" connectable="0" parent="101">
                    <mxGeometry width="221" height="260" as="geometry"/>
                </mxCell>
                <mxCell id="93" value="" style="rounded=0;whiteSpace=wrap;html=1;" vertex="1" parent="95">
                    <mxGeometry width="221" height="260" as="geometry"/>
                </mxCell>
                <mxCell id="94" value="" style="rounded=1;whiteSpace=wrap;html=1;" vertex="1" parent="95">
                    <mxGeometry width="221" height="83.2512315270936" as="geometry"/>
                </mxCell>
                <mxCell id="96" value="User" style="text;html=1;strokeColor=none;fillColor=none;align=center;verticalAlign=middle;whiteSpace=wrap;rounded=0;" vertex="1" parent="95">
                    <mxGeometry x="80.5" y="22.413793103448274" width="60" height="38.423645320197046" as="geometry"/>
                </mxCell>
                <mxCell id="97" value="-name: string&lt;br&gt;-phone: string&lt;br&gt;-cellphone: string&lt;br&gt;-url: string&lt;br&gt;-date: string&lt;br&gt;-email: string&lt;br&gt;-cep: string&lt;br&gt;-city: string&lt;br&gt;-insta: string&lt;br&gt;-github: string&lt;br&gt;-age :int&lt;br&gt;-id : it&amp;nbsp;" style="text;html=1;strokeColor=none;fillColor=none;align=left;verticalAlign=middle;whiteSpace=wrap;rounded=0;" vertex="1" parent="95">
                    <mxGeometry y="78" width="221" height="182" as="geometry"/>
                </mxCell>
                <mxCell id="100" value="+geZodiaSign():srtring&lt;br&gt;+getAge(): int&lt;br&gt;+getgeneratebyid: id" style="rounded=0;whiteSpace=wrap;html=1;" vertex="1" parent="101">
                    <mxGeometry y="260" width="221" height="60" as="geometry"/>
                </mxCell>
                <mxCell id="102" value="" style="group" vertex="1" connectable="0" parent="1">
                    <mxGeometry x="377" y="104" width="221" height="320" as="geometry"/>
                </mxCell>
                <mxCell id="103" value="" style="group" vertex="1" connectable="0" parent="102">
                    <mxGeometry width="221" height="260" as="geometry"/>
                </mxCell>
                <mxCell id="104" value="" style="rounded=0;whiteSpace=wrap;html=1;" vertex="1" parent="103">
                    <mxGeometry width="221" height="260" as="geometry"/>
                </mxCell>
                <mxCell id="105" value="" style="rounded=1;whiteSpace=wrap;html=1;" vertex="1" parent="103">
                    <mxGeometry width="221" height="83.2512315270936" as="geometry"/>
                </mxCell>
                <mxCell id="106" value="classLists" style="text;html=1;strokeColor=none;fillColor=none;align=center;verticalAlign=middle;whiteSpace=wrap;rounded=0;" vertex="1" parent="103">
                    <mxGeometry x="80.5" y="22.413793103448274" width="60" height="38.423645320197046" as="geometry"/>
                </mxCell>
                <mxCell id="107" value="+addUser:void&lt;br&gt;+getContactbyid:void" style="text;html=1;strokeColor=none;fillColor=none;align=left;verticalAlign=middle;whiteSpace=wrap;rounded=0;" vertex="1" parent="103">
                    <mxGeometry y="78" width="221" height="182" as="geometry"/>
                </mxCell>
            </root>
        </mxGraphModel>
    </diagram>
</mxfile>